HIERARCHY
ROOT joint_Root
{
	OFFSET 0.0 0.0 0.0
	CHANNELS 6 Xposition Yposition Zposition Zrotation Xrotation Yrotation 
	JOINT Hips
	{
		OFFSET -0.726466 93.3139 -2.00062
		CHANNELS 6 Xposition Yposition Zposition Zrotation Xrotation Yrotation 
		JOINT Spine
		{
			OFFSET 15.7357 0.0 0.0
			CHANNELS 6 Xposition Yposition Zposition Zrotation Xrotation Yrotation 
			JOINT Chest
			{
				OFFSET 8.98455 -0.406207 0.0
				CHANNELS 6 Xposition Yposition Zposition Zrotation Xrotation Yrotation 
				JOINT Neck
				{
					OFFSET 16.3773 0.0 0.0
					CHANNELS 6 Xposition Yposition Zposition Zrotation Xrotation Yrotation 
					JOINT Head
					{
						OFFSET 6.45672 0.0 0.0
						CHANNELS 6 Xposition Yposition Zposition Zrotation Xrotation Yrotation 
						End Site
						{
							OFFSET 0.0 0.0 0.0
						}
					}
				}
				JOINT Shoulder_L
				{
					OFFSET 12.9942 -0.242716 4.98039
					CHANNELS 6 Xposition Yposition Zposition Zrotation Xrotation Yrotation 
					JOINT UpperArm_L
					{
						OFFSET 5.34809 0.0 0.0
						CHANNELS 6 Xposition Yposition Zposition Zrotation Xrotation Yrotation 
						JOINT LowerArm_L
						{
							OFFSET 24.3286 1.87007e-05 0.0
							CHANNELS 6 Xposition Yposition Zposition Zrotation Xrotation Yrotation 
							JOINT Hand_L
							{
								OFFSET 22.2916 0.0 0.0
								CHANNELS 6 Xposition Yposition Zposition Zrotation Xrotation Yrotation 
								End Site
								{
									OFFSET 0.0 0.0 0.0
								}
							}
						}
					}
				}
				JOINT Shoulder_R
				{
					OFFSET 12.9945 -0.242716 -4.98039
					CHANNELS 6 Xposition Yposition Zposition Zrotation Xrotation Yrotation 
					JOINT UpperArm_R
					{
						OFFSET -5.34813 0.0 0.0
						CHANNELS 6 Xposition Yposition Zposition Zrotation Xrotation Yrotation 
						JOINT LowerArm_R
						{
							OFFSET -24.3289 0.000322201 0.0
							CHANNELS 6 Xposition Yposition Zposition Zrotation Xrotation Yrotation 
							JOINT Hand_R
							{
								OFFSET -22.2915 -0.000108084 0.0
								CHANNELS 6 Xposition Yposition Zposition Zrotation Xrotation Yrotation 
								End Site
								{
									OFFSET 0.0 0.0 0.0
								}
							}
						}
					}
				}
			}
		}
		JOINT UpperLeg_L
		{
			OFFSET -2.19248 -6.46944 0.0
			CHANNELS 6 Xposition Yposition Zposition Zrotation Xrotation Yrotation 
			JOINT LowerLeg_L
			{
				OFFSET 39.0811 0.0 -1.23785e-05
				CHANNELS 6 Xposition Yposition Zposition Zrotation Xrotation Yrotation 
				JOINT Foot_L
				{
					OFFSET 40.9854 0.0 -1.26872e-05
					CHANNELS 6 Xposition Yposition Zposition Zrotation Xrotation Yrotation 
					JOINT Toes_L
					{
						OFFSET 11.7543 0.0 0.0
						CHANNELS 6 Xposition Yposition Zposition Zrotation Xrotation Yrotation 
						End Site
						{
							OFFSET 0.0 0.0 0.0
						}
					}
				}
			}
		}
		JOINT UpperLeg_R
		{
			OFFSET -2.19251 6.46944 0.0
			CHANNELS 6 Xposition Yposition Zposition Zrotation Xrotation Yrotation 
			JOINT LowerLeg_R
			{
				OFFSET -39.0811 -0.00228153 -0.0401928
				CHANNELS 6 Xposition Yposition Zposition Zrotation Xrotation Yrotation 
				JOINT Foot_R
				{
					OFFSET -40.9854 0.0 0.0
					CHANNELS 6 Xposition Yposition Zposition Zrotation Xrotation Yrotation 
					JOINT Toes_R
					{
						OFFSET -11.7543 0.0 0.0
						CHANNELS 6 Xposition Yposition Zposition Zrotation Xrotation Yrotation 
						End Site
						{
							OFFSET 0.0 0.0 0.0
						}
					}
				}
			}
		}
	}
}
MOTION
Frames:	6
Frame Time:	0.0333333
0.000000 0.000000 0.000000 0.000000 0.000000 -0.000000 136.143000 89.093800 -163.440000 87.608500 -1.164850 1.108610 15.735700 0.000005 -0.000001 90.133200 81.320600 -90.385000 8.984550 -0.406207 -0.000000 9.592910 0.036110 -0.506180 16.377300 -0.000001 -0.000001 6.217790 -0.740546 -0.868624 6.456720 -0.000001 -0.000000 1.374440 0.100847 5.757570 12.994200 -0.242716 4.980390 -88.611900 -3.620430 -69.005200 5.348090 -0.000007 -0.000001 -54.712800 33.074500 -20.564500 24.328600 0.000019 0.000005 2.884970 3.025290 -43.684100 22.291600 -0.000001 0.000005 3.708310 5.563750 -9.375520 12.994500 -0.242716 -4.980390 88.147200 4.689550 -68.412300 -5.348130 -0.000001 -0.000004 -58.884400 34.440600 -15.951900 -24.328900 0.000322 -0.000009 4.155690 6.662940 -32.062600 -22.291500 -0.000108 -0.000004 2.337640 5.541900 -8.329360 -2.192480 -6.469440 -0.000000 -178.568000 -12.611400 -17.778500 39.081100 -0.000007 -0.000012 -0.116193 0.131658 41.430100 40.985400 -0.000006 -0.000013 2.012540 -7.918250 -72.918200 11.754300 -0.000000 0.000003 -1.561770 -2.055320 -15.317100 -2.192510 6.469440 -0.000001 173.897000 11.922900 164.369000 -39.081100 -0.002282 -0.040193 0.288525 -0.112259 68.528100 -40.985400 0.000008 0.000006 1.884890 -3.390270 -50.451400 -11.754300 -0.000006 -0.000006 -0.021831 -0.177228 -23.817600
0.000000 0.000000 0.000000 0.000000 0.000000 -0.000000 136.239000 90.021200 -160.547000 86.849600 -0.024040 1.460990 15.735700 0.000005 -0.000001 85.918800 81.309300 -85.775400 8.984550 -0.406207 -0.000000 9.574480 -1.227550 0.389319 16.377300 -0.000001 -0.000001 6.460940 -0.872548 -1.221080 6.456720 -0.000001 -0.000000 1.299950 1.122450 5.884720 12.994200 -0.242716 4.980390 -88.470500 -4.144750 -69.724100 5.348090 -0.000007 -0.000001 -51.145900 32.011500 -25.763100 24.328600 0.000019 0.000005 2.770910 2.615690 -46.688200 22.291600 -0.000001 0.000005 4.304840 5.567900 -9.579950 12.994500 -0.242716 -4.980390 88.095900 4.560730 -67.310500 -5.348130 -0.000001 -0.000004 -61.220200 34.025800 -10.242700 -24.328900 0.000322 -0.000009 4.275070 6.969360 -31.642400 -22.291500 -0.000108 -0.000004 1.735060 5.534330 -7.984490 -2.192480 -6.469440 -0.000000 -177.485000 -12.029600 -13.222200 39.081100 -0.000007 -0.000012 -0.021357 0.028043 37.294400 40.985400 -0.000006 -0.000013 2.778830 -7.633580 -73.073200 11.754300 -0.000000 0.000003 -1.224520 -1.603070 -14.856500 -2.192510 6.469440 -0.000001 176.426000 14.800600 160.986000 -39.081100 -0.002282 -0.040193 0.243938 -0.111590 65.134200 -40.985400 0.000008 0.000006 1.170400 -2.404630 -52.972200 -11.754300 -0.000006 -0.000006 -0.022146 -0.178900 -23.886500
0.000000 0.000000 0.000000 0.000000 0.000000 -0.000000 136.299000 90.767000 -157.756000 86.213900 1.081460 1.652510 15.735700 0.000005 -0.000001 82.159700 81.192400 -81.668400 8.984550 -0.406207 -0.000000 9.701120 -2.380310 1.183970 16.377300 -0.000001 -0.000001 6.489700 -1.082100 -1.399050 6.456720 -0.000001 -0.000000 1.089210 1.966090 5.865470 12.994200 -0.242716 4.980390 -88.394400 -4.498760 -70.334900 5.348090 -0.000007 -0.000001 -47.195100 30.524400 -31.017100 24.328600 0.000019 0.000005 2.239400 1.941590 -49.097900 22.291600 -0.000001 0.000005 4.512430 5.571480 -9.764070 12.994500 -0.242716 -4.980390 88.056000 4.427660 -66.266800 -5.348130 -0.000001 -0.000004 -62.819600 33.221400 -5.340700 -24.328900 0.000322 -0.000009 4.219270 6.890080 -31.596400 -22.291500 -0.000108 -0.000004 1.434120 5.533350 -7.943270 -2.192480 -6.469440 -0.000000 -176.491000 -11.204800 -9.005990 39.081100 -0.000007 -0.000012 0.009509 -0.014570 33.128300 40.985400 -0.000006 -0.000013 3.037720 -7.484150 -72.746700 11.754300 -0.000000 0.000003 -1.192350 -1.552750 -14.997600 -2.192510 6.469440 -0.000001 179.106000 17.313900 158.285000 -39.081100 -0.002282 -0.040193 0.177535 -0.105167 58.898700 -40.985400 0.000008 0.000006 0.739791 -1.786950 -55.599100 -11.754300 -0.000006 -0.000006 -0.021640 -0.176210 -23.775600
0.000000 0.000000 0.000000 0.000000 0.000000 -0.000000 136.288000 91.266400 -155.083000 85.613100 2.245490 1.682110 15.735700 0.000005 -0.000001 78.523600 80.967400 -77.718500 8.984550 -0.406207 -0.000000 9.977770 -3.556320 1.919930 16.377300 -0.000001 -0.000001 6.272870 -1.226110 -1.448330 6.456720 -0.000001 -0.000000 0.856227 2.636160 5.837740 12.994200 -0.242716 4.980390 -88.301000 -4.895620 -70.834200 5.348090 -0.000007 -0.000001 -43.659500 28.421300 -35.706500 24.328600 0.000019 0.000005 1.480130 1.193680 -51.130600 22.291600 -0.000001 0.000005 4.516810 5.568580 -9.615880 12.994500 -0.242716 -4.980390 88.032000 4.297780 -65.367900 -5.348130 -0.000001 -0.000004 -63.894600 32.197700 -1.430730 -24.328900 0.000322 -0.000009 4.193510 6.796500 -31.787500 -22.291500 -0.000108 -0.000004 0.944728 5.529420 -7.769130 -2.192480 -6.469440 -0.000000 -175.490000 -10.176700 -5.409870 39.081100 -0.000007 -0.000012 0.000505 -0.000889 29.550800 40.985400 -0.000006 -0.000013 2.757730 -7.280990 -72.481900 11.754300 -0.000000 0.000003 -1.266500 -1.656740 -14.984600 -2.192510 6.469440 -0.000001 -178.075000 19.806600 156.300000 -39.081100 -0.002282 -0.040193 0.114003 -0.092412 50.159300 -40.985400 0.000008 0.000006 0.364373 -1.609780 -57.077600 -11.754300 -0.000006 -0.000006 -0.020966 -0.172580 -23.625900
0.000000 0.000000 0.000000 0.000000 0.000000 -0.000000 136.264000 91.349700 -152.497000 85.470500 3.473620 1.369790 15.735700 0.000005 -0.000001 74.967000 80.828300 -73.980100 8.984550 -0.406207 -0.000000 10.016100 -4.708600 2.386030 16.377300 -0.000001 -0.000001 6.183910 -1.456750 -1.395940 6.456720 -0.000001 -0.000000 0.580025 3.166580 5.705310 12.994200 -0.242716 4.980390 -88.186300 -5.369930 -71.306100 5.348090 -0.000007 -0.000001 -40.696900 26.344100 -39.631100 24.328600 0.000019 0.000005 0.834364 0.636444 -52.667600 22.291600 -0.000001 0.000005 4.476740 5.570000 -9.688480 12.994500 -0.242716 -4.980390 88.035500 4.107050 -64.409100 -5.348130 -0.000001 -0.000004 -64.476900 31.480900 1.806260 -24.328900 0.000322 -0.000009 4.262770 6.816560 -32.135000 -22.291500 -0.000108 -0.000004 0.574766 5.529770 -7.786270 -2.192480 -6.469440 -0.000000 -174.942000 -9.382600 -2.854020 39.081100 -0.000007 -0.000012 -0.004241 0.008260 27.177100 40.985400 -0.000006 -0.000013 2.198140 -6.741560 -72.802600 11.754300 -0.000000 0.000003 -1.441690 -1.893180 -15.188100 -2.192510 6.469440 -0.000001 -175.459000 22.248700 154.525000 -39.081100 -0.002282 -0.040193 0.064338 -0.073165 39.846000 -40.985400 0.000008 0.000006 0.176795 -1.612530 -56.647700 -11.754300 -0.000006 -0.000006 -0.022062 -0.178452 -23.868100
0.000000 0.000000 0.000000 0.000000 0.000000 -0.000000 136.238000 91.063000 -149.889000 85.874000 4.585270 0.885484 15.735700 0.000005 -0.000001 71.874500 80.700800 -70.887600 8.984550 -0.406207 -0.000000 9.996780 -5.730630 2.475410 16.377300 -0.000001 -0.000001 5.920780 -1.806440 -1.380930 6.456720 -0.000001 -0.000000 0.417819 3.565680 5.749550 12.994200 -0.242716 4.980390 -88.067500 -5.868470 -71.736200 5.348090 -0.000007 -0.000001 -38.031800 24.464900 -42.823200 24.328600 0.000019 0.000005 0.791207 0.567194 -54.353300 22.291600 -0.000001 0.000005 4.686820 5.571290 -9.754310 12.994500 -0.242716 -4.980390 88.050400 3.916520 -63.509900 -5.348130 -0.000001 -0.000004 -64.856200 30.850500 4.521010 -24.328900 0.000322 -0.000009 4.355860 6.798680 -32.764900 -22.291500 -0.000108 -0.000004 0.255141 5.524770 -7.566620 -2.192480 -6.469440 -0.000000 -174.913000 -8.845010 -0.871509 39.081100 -0.000007 -0.000012 -0.008199 0.016950 25.814900 40.985400 -0.000006 -0.000013 1.935680 -6.175140 -73.693900 11.754300 -0.000000 0.000003 -1.752270 -2.300660 -15.697400 -2.192510 6.469440 -0.000001 -173.334000 24.077900 153.003000 -39.081100 -0.002282 -0.040193 0.030895 -0.049715 29.030000 -40.985400 0.000008 0.000006 -0.531285 -1.364270 -55.321600 -11.754300 -0.000006 -0.000006 -0.022084 -0.178571 -23.873000
